<?xml version="1.0" encoding="UTF-8"?>
<!DOCTYPE svg PUBLIC "-//W3C//DTD SVG 1.1//EN" "http://www.w3.org/Graphics/SVG/1.1/DTD/svg11.dtd">
<svg version="1.1" xmlns="http://www.w3.org/2000/svg" xmlns:xlink="http://www.w3.org/1999/xlink" x="0px" y="0px" width="128" height="128" viewBox="0, 0, 128, 128">
  <g id="Background">
    <rect x="0" y="0" width="128" height="128" fill="#000000" fill-opacity="0"/>
  </g>
  <g id="Background">
    <path d="M18.093,6 L109.907,6 C116.561,6 122,11.439 122,18.093 L122,109.907 C122,116.561 116.561,122 109.907,122 L18.093,122 C11.439,122 6,116.561 6,109.907 L6,18.093 C6,11.439 11.439,6 18.093,6" fill="#727272"/>
    <path d="M77.723,93.804 L50.152,93.804 L49.271,96.764 L22.387,96.764 L25.013,89.485 L103.106,89.485 L105.696,96.764 L78.655,96.764 z M47.107,104.043 L45.425,109.693 L17.722,109.693 L19.76,104.043 z M27.637,82.199 L30.26,74.92 L97.941,74.92 L100.522,82.199 z M32.889,67.64 L35.516,60.361 L60.204,60.361 L59.209,64.137 L58.26,67.64 z M38.137,53.082 L40.763,45.801 L87.606,45.801 L90.192,53.082 L65.713,53.082 L64.329,47.725 L63.542,47.725 L62.128,53.082 z M43.394,38.517 L46.015,31.236 L82.441,31.236 L85.027,38.517 z M48.641,23.957 L50.678,18.312 L77.851,18.312 L79.857,23.957 z M92.776,60.361 L95.357,67.64 L69.571,67.64 L71.161,73.322 L68.402,63.48 L67.599,60.361 z M108.277,104.043 L110.281,109.693 L82.715,109.693 L80.939,104.043 z" fill="#84D0F4"/>
  </g>
  <defs/>
</svg>
